<svg width="15" height="14" viewBox="0 0 15 14" fill="none" xmlns="http://www.w3.org/2000/svg">
<path d="M1.03793 11.6736L1.97492 12.0586V5.85091L0.275752 9.87938C-0.0109392 10.5806 0.331692 11.3849 1.03793 11.6736ZM14.6732 9.13007L11.205 0.901232C10.9882 0.385641 10.4777 0.0694133 9.93935 0.0556641C9.75753 0.0556641 9.56874 0.0831625 9.38695 0.158782L4.23349 2.25552C3.70906 2.46863 3.3874 2.9636 3.37341 3.49294C3.36641 3.67855 3.4014 3.86416 3.47831 4.04289L6.94656 12.2717C7.16333 12.7942 7.68077 13.1104 8.22617 13.1173C8.40799 13.1173 8.58978 13.0829 8.7646 13.0142L13.9111 10.9175C14.6243 10.6287 14.9669 9.8244 14.6732 9.13007ZM4.77889 4.1804C4.39432 4.1804 4.07967 3.87103 4.07967 3.49294C4.07967 3.11485 4.39432 2.80548 4.77889 2.80548C5.1635 2.80548 5.47815 3.11485 5.47815 3.49294C5.47815 3.87103 5.1635 4.1804 4.77889 4.1804ZM3.38041 11.7424C3.38041 12.4986 4.00972 13.1173 4.77889 13.1173H5.79281L3.38041 7.38393V11.7424Z" fill="#131313"/>
</svg>
